<?xml version="1.0" standalone="no"?>
<!DOCTYPE svg PUBLIC "-//W3C//DTD SVG 20010904//EN"
 "http://www.w3.org/TR/2001/REC-SVG-20010904/DTD/svg10.dtd">
<svg version="1.0" xmlns="http://www.w3.org/2000/svg"
 width="160.000000pt" height="160.000000pt" viewBox="0 0 160.000000 160.000000"
 preserveAspectRatio="xMidYMid meet">
<metadata>
Created by potrace 1.14, written by Peter Selinger 2001-2017
</metadata>
<g transform="translate(0.000000,160.000000) scale(0.100000,-0.100000)"
fill="#000000" stroke="none">
<path d="M560 1433 c-99 -35 -211 -190 -266 -366 -15 -48 -26 -63 -69 -96 -68
-52 -107 -109 -113 -170 -4 -43 -1 -52 28 -84 17 -20 46 -42 64 -48 l33 -12 7
-125 c9 -160 20 -218 50 -257 31 -40 124 -89 201 -106 93 -20 294 -15 389 10
44 12 81 21 83 21 2 0 -1 -9 -7 -19 -14 -28 -13 -31 13 -31 20 0 35 25 117
197 l94 197 -48 90 -48 90 25 21 c13 11 54 46 91 79 60 53 68 57 85 45 99 -71
140 -106 140 -119 0 -8 -8 -49 -18 -90 -18 -75 -18 -75 -53 -78 -31 -3 -39 2
-68 38 l-33 42 21 21 c20 20 22 20 40 4 21 -19 32 -13 32 18 0 15 -14 31 -41
49 l-40 27 -44 -38 c-24 -21 -44 -41 -44 -44 -1 -4 19 -43 44 -87 l45 -80 -95
-180 c-52 -99 -95 -186 -95 -192 0 -6 10 -10 23 -8 18 2 42 41 122 193 l100
190 52 3 c48 3 53 5 59 30 3 15 16 68 29 118 l22 92 -108 82 -109 83 -48 -41
-49 -40 -16 28 c-9 15 -32 41 -51 57 -31 28 -34 36 -38 98 l-4 68 97 -7 c60
-4 100 -3 103 3 17 27 -204 192 -349 262 -157 75 -263 94 -355 62z m183 -49
c33 -8 90 -29 126 -45 66 -30 254 -150 267 -171 5 -7 -12 -9 -61 -3 l-68 7 7
-81 7 -81 -54 25 c-96 44 -199 65 -325 65 -101 0 -113 2 -102 15 10 12 9 15
-8 15 -11 0 -25 7 -32 15 -11 14 -14 13 -27 -5 -8 -11 -21 -20 -30 -20 -14 0
-14 -2 1 -19 16 -18 15 -19 -26 -34 -24 -8 -51 -18 -61 -22 -16 -7 -15 0 8 60
32 87 81 178 109 204 26 25 56 19 56 -10 0 -21 15 -25 26 -8 3 6 15 8 26 6 16
-5 19 -2 15 15 -4 12 -2 29 4 40 8 14 6 17 -8 15 -27 -3 -28 17 -1 25 40 11
88 8 151 -8z m64 -349 c127 -30 269 -111 307 -177 l18 -30 -30 -31 -31 -31
-51 51 c-187 187 -539 189 -730 5 -36 -35 -50 -56 -50 -76 0 -22 -4 -27 -21
-24 -12 2 -31 15 -42 29 -65 89 115 240 348 292 47 11 225 6 282 -8z m-24
-140 c84 -22 147 -57 195 -109 l42 -46 0 -125 c0 -100 4 -135 20 -176 l19 -51
-29 -58 c-25 -49 -36 -60 -77 -77 -96 -41 -257 -59 -389 -43 -107 12 -208 57
-235 105 -21 35 -39 192 -39 336 0 99 0 99 34 137 42 46 113 86 187 106 71 19
201 20 272 1z m325 -400 c-29 -59 -37 -42 -37 75 l0 85 29 -57 30 -57 -22 -46z"/>
<path d="M700 1290 c0 -54 -26 -80 -82 -80 l-43 -1 24 -19 c34 -29 77 -26 112
9 33 33 36 58 14 101 -21 40 -25 38 -25 -10z"/>
<path d="M855 1231 c-4 -7 -18 -11 -32 -8 -21 4 -24 1 -19 -16 3 -11 1 -29 -5
-39 -8 -15 -6 -18 15 -18 13 0 27 -8 31 -17 6 -16 9 -14 21 10 8 15 22 27 32
27 16 1 16 1 0 14 -10 7 -21 23 -26 36 -6 17 -11 20 -17 11z"/>
<path d="M450 790 c-25 -25 -26 -62 -2 -83 37 -34 92 -11 92 39 0 27 -32 64
-55 64 -8 0 -24 -9 -35 -20z"/>
<path d="M780 790 c-38 -38 -16 -100 35 -100 30 0 55 25 55 56 0 27 -32 64
-55 64 -8 0 -24 -9 -35 -20z"/>
<path d="M500 585 c-17 -20 7 -47 64 -75 73 -35 175 -22 238 30 28 24 31 30
19 44 -12 14 -16 14 -42 -9 -28 -23 -86 -45 -119 -45 -33 0 -91 22 -119 45
-25 22 -30 23 -41 10z"/>
</g>
</svg>
